<?xml version="1.0" standalone="no"?>
<!DOCTYPE svg PUBLIC "-//W3C//DTD SVG 1.1//EN" "http://www.w3.org/Graphics/SVG/1.1/DTD/svg11.dtd">
<svg xmlns="http://www.w3.org/2000/svg" width="28" height="32" viewBox="0 0 28 32" fill="none">
<path d="M19.7439 0C24.6859 2.16024e-07 28.2101 4.79365 26.7361 9.51074L21.4978 26.2725C20.4331 29.6795 17.2773 32 13.7077 32C9.5683 31.9998 5.93414 29.2465 4.8132 25.2617L0.272184 9.11523C-1.0147 4.53966 2.42343 0.000181949 7.17648 0H19.7439ZM13.2946 11.7617C11.8957 11.7617 10.7607 12.8918 10.7605 14.2852V25.2207C10.7605 26.6142 11.8956 27.7441 13.2946 27.7441C14.6935 27.7439 15.8278 26.6141 15.8278 25.2207V14.2852C15.8276 12.8919 14.6934 11.7619 13.2946 11.7617ZM6.74679 4.6084C5.23131 4.60866 4.00265 5.83315 4.00265 7.34277C4.0028 8.8523 5.2314 10.0759 6.74679 10.0762H20.2585C21.774 10.076 23.0025 8.85238 23.0027 7.34277C23.0027 5.83307 21.7741 4.60853 20.2585 4.6084H6.74679ZM20.2595 5.44629C21.3089 5.44629 22.1599 6.29362 22.1599 7.33887C22.1597 8.38399 21.3088 9.23145 20.2595 9.23145C19.2104 9.23135 18.3602 8.38393 18.3601 7.33887C18.3601 6.29368 19.2103 5.44639 20.2595 5.44629Z" fill="#00056D"/>
</svg>